<svg width="806" height="605" viewBox="0 0 1146 855" fill="none" xmlns="http://www.w3.org/2000/svg">
<g clip-path="url(#clip0)">
<path d="M912.28 264.95C910.85 263.852 909.176 263.118 907.4 262.81C905.53 262.38 903.62 262.11 901.72 261.81L877.1 258.26C874.615 257.799 872.08 257.664 869.56 257.86C868.296 257.964 867.065 258.318 865.939 258.901C864.812 259.485 863.814 260.287 863 261.26C862.266 262.165 861.864 263.295 861.86 264.46C861.997 265.633 862.379 266.764 862.98 267.78C863.218 268.255 863.422 268.746 863.59 269.25C863.826 270.381 864.119 271.499 864.47 272.6C864.579 272.838 864.72 273.06 864.89 273.26C864.894 273.317 864.894 273.373 864.89 273.43C864.62 274.81 865.49 276.25 865.1 277.58C864.76 278.72 863.65 279.41 862.95 280.36C862.483 281.034 862.225 281.83 862.207 282.65C862.189 283.47 862.413 284.276 862.85 284.97C863.6 286.13 864.96 286.92 865.35 288.25C865.86 290 864.48 291.69 863.25 293.04C860.987 295.525 858.896 298.161 856.99 300.93C856.454 301.611 856.109 302.422 855.99 303.28C855.88 305.02 857.55 306.55 857.26 308.28C857.03 309.64 855.7 310.47 854.55 311.28C850.3 314.08 846.89 318.58 846.55 323.67C845.459 315.572 842.103 307.946 836.87 301.67C835.44 299.95 833.87 298.22 833.28 296.04C833.06 295.17 833.02 294.24 832.72 293.4C831.72 290.75 828.54 289.61 827.15 287.17C826.15 285.45 826.15 283.24 824.91 281.73C823.67 280.22 821.72 279.88 820.65 278.42C820.116 277.431 819.661 276.401 819.29 275.34C818.841 274.475 818.21 273.717 817.44 273.12C817.293 273.002 817.139 272.892 816.98 272.79C817.146 272.641 817.279 272.46 817.37 272.256C817.462 272.053 817.509 271.833 817.51 271.61C817.51 270.44 816.35 269.67 815.34 269.09C814.04 268.35 812.77 267.55 811.53 266.72C812.882 266.09 814.055 265.131 814.94 263.93C816.05 262.139 816.509 260.02 816.24 257.93C816.172 256.243 815.542 254.628 814.45 253.34C813.82 252.67 813.03 252.19 812.37 251.56C810.66 249.89 810.08 247.42 809.37 245.14C808.43 242.14 806.96 238.99 804.22 237.4C802.9 236.63 801.36 236.27 800.07 235.46C798.78 234.65 797.7 233.12 798.15 231.65C798.45 230.65 799.38 229.96 800.01 229.11C800.762 228.011 801.051 226.66 800.813 225.349C800.575 224.039 799.83 222.875 798.74 222.11C798 221.64 797.09 221.23 796.94 220.37C796.361 220.22 795.836 219.909 795.426 219.474C795.016 219.039 794.736 218.497 794.62 217.91C794.395 216.734 794.395 215.526 794.62 214.35C794.88 212.49 795.137 210.637 795.39 208.79C795.831 208.973 796.303 209.068 796.78 209.068C797.257 209.068 797.729 208.973 798.17 208.79C799.035 210.194 800.04 211.508 801.17 212.71C804.215 216.306 806.586 220.422 808.17 224.86C808.74 226.46 809.32 228.25 810.8 229.1C811.31 229.39 811.89 229.54 812.39 229.85C813.007 230.28 813.536 230.823 813.95 231.45C815.15 233.04 816.35 234.62 817.54 236.21L817.6 236.45C817.632 236.591 817.686 236.726 817.76 236.85C817.981 237.099 818.288 237.256 818.62 237.29C822.3 238.14 826.43 238.92 829.62 236.91C832.5 235.11 833.76 231.55 836.2 229.17C837.93 227.48 840.38 226.17 840.87 223.79C840.286 223.61 839.712 223.4 839.15 223.16C839.65 222.66 840.15 222.08 840.83 221.42C841.818 220.453 842.709 219.391 843.49 218.25C844.334 216.842 845.006 215.338 845.49 213.77C847.417 208.277 849.35 202.78 851.29 197.28C852.21 194.68 853.13 192.06 854.29 189.53C855.49 186.79 856.91 184.16 858.22 181.47C861.601 174.474 864.21 167.131 866 159.57C866.317 158.538 866.423 157.453 866.31 156.38C866.03 154.65 864.72 153.29 863.47 152.06C862.213 150.699 860.781 149.512 859.21 148.53C858.421 148.04 857.543 147.711 856.626 147.563C855.71 147.416 854.773 147.452 853.87 147.67C851.31 148.42 849.7 151.04 849.11 153.67C848.52 156.3 848.74 159.01 848.49 161.67C848.13 165.52 846.81 169.24 846.49 173.1C846.32 175.33 846.49 177.59 846.22 179.82C845.728 182.738 844.712 185.544 843.22 188.1C839.977 194.197 835.587 199.609 830.29 204.04C829.68 204.55 829.05 205.04 828.45 205.59C828.45 205.16 828.52 204.72 828.58 204.29C828.145 204.403 827.72 204.554 827.31 204.74C827.36 204.235 827.309 203.725 827.16 203.24C826.36 200.85 822.8 200.24 822.16 197.81C822.053 197.209 821.997 196.6 821.99 195.99C821.78 193.86 820.33 192.06 819.83 189.99C819.37 188.08 819.72 185.99 818.83 184.22C818.072 183.113 817.178 182.105 816.17 181.22C814.968 179.848 814.102 178.215 813.64 176.45C813.51 175.96 813.39 175.45 813.25 174.96C813.402 173.85 813.278 172.72 812.89 171.67C811.98 169.41 809.63 167.96 808.78 165.67C808.12 163.89 808.41 161.67 807.16 160.29C806.496 159.631 805.683 159.14 804.79 158.86C800.213 157.078 795.41 155.943 790.52 155.49C787.78 155.24 784.76 155.1 782.8 153.17C780.51 150.93 780.4 146.9 777.72 145.17C775.36 143.64 772.02 144.77 770.19 146.92C769.915 147.236 769.661 147.57 769.43 147.92C769.096 146.58 769.025 145.187 769.22 143.82C769.22 143.48 769.29 143.13 769.32 142.82C773.835 141.345 777.678 138.31 780.16 134.26C780.16 134.26 780.16 134.26 780.16 134.32L780.28 134.63C780.57 135.36 781.03 136.06 781.71 136.14C782.162 136.135 782.599 135.976 782.95 135.69C783.553 135.271 784.11 134.788 784.61 134.25C784.863 133.97 785.103 133.68 785.33 133.38C785.791 132.756 786.186 132.085 786.51 131.38C787.007 130.319 787.344 129.19 787.51 128.03C787.69 126.87 787.71 125.68 787.91 124.52C788.097 123.622 788.341 122.737 788.64 121.87C788.74 121.58 788.84 121.29 788.93 121C789.02 120.71 789.15 120.32 789.25 120C789.876 117.943 790.212 115.81 790.25 113.66C790.25 113.3 790.25 112.94 790.25 112.58C790.214 111.177 789.898 109.796 789.321 108.516C788.744 107.237 787.917 106.086 786.89 105.13C785.17 103.72 782.89 103.13 781.63 101.22C780.81 99.94 780.63 98.29 780.15 96.79C779.631 94.9949 778.62 93.381 777.231 92.1314C775.841 90.8818 774.13 90.0464 772.29 89.72C770.075 89.4771 767.85 90.0887 766.07 91.43V91.43L765.93 91.54C764.938 92.2972 764.097 93.2334 763.45 94.3C762.129 93.9361 760.919 93.2487 759.93 92.3C758.93 91.37 758.16 90.2 757.15 89.3C756.206 88.4356 755.048 87.8404 753.795 87.5766C752.543 87.3127 751.242 87.3899 750.03 87.8C748.781 88.3003 747.669 89.0895 746.784 90.1029C745.899 91.1163 745.267 92.3251 744.94 93.63C744.39 95.69 744.49 98.06 743.34 99.78C742.45 101.12 740.99 101.78 739.97 103C739.336 103.773 738.903 104.69 738.71 105.67V105.67C738.589 106.218 738.532 106.779 738.54 107.34V107.34C738.54 107.59 738.54 107.84 738.6 108.08C738.6 108.08 738.6 108.16 738.6 108.2C738.635 108.474 738.692 108.745 738.77 109.01V109.01C739.054 110.024 739.564 110.96 740.26 111.75C740.92 112.506 741.744 113.101 742.67 113.49C743.049 113.637 743.436 113.761 743.83 113.86L745.02 114.13L745.44 114.23C744.004 116.926 743.207 119.917 743.11 122.97C743.012 126.023 743.618 129.058 744.88 131.84C744.88 132.12 744.81 132.4 744.78 132.68C744.617 136.618 744.791 140.562 745.3 144.47C745.44 146.02 745.52 147.73 744.57 148.96C744.137 149.444 743.651 149.877 743.12 150.25C743.66 149.55 744.21 148.86 744.77 148.17C743.36 146.75 741.13 146.57 739.13 146.71C735.259 146.999 731.502 148.147 728.13 150.07C725.89 151.36 723.59 153.07 721.03 152.77C719.52 152.6 718.03 151.77 716.56 152.17C715.734 152.508 714.962 152.966 714.27 153.53C713.723 153.922 713.063 154.126 712.39 154.11C710.82 152.18 708.39 150.87 706.51 149.3C704.37 147.395 702.412 145.296 700.66 143.03C697.42 139.12 694.19 135.2 691.01 131.25C688.33 127.93 685.58 124.34 685.11 120.09C685.062 119.668 685.039 119.244 685.04 118.82C685.105 116.801 685.36 114.792 685.8 112.82C685.919 112.344 685.919 111.846 685.8 111.37C685.5 110.37 684.35 110 683.36 109.78C683.49 109.01 683.58 108.22 683.63 107.47C684.19 98.87 683.58 90.13 685.4 81.71C686.09 78.47 687.22 75.19 689.55 72.84C693.2 69.15 699.31 68.26 702.11 63.89C704.45 60.25 703.52 55.1 700.58 51.89C697.64 48.68 693.11 47.37 688.8 47.53C687.591 47.4885 686.396 47.8088 685.37 48.45C684.411 49.302 683.693 50.392 683.29 51.61L679 62.04C677.756 64.7555 676.707 67.5559 675.86 70.42C674.66 74.8 674.39 79.42 673.44 83.84C673.44 87.24 671.25 91.48 670.05 94.61C668.71 98.13 667.26 101.61 666.05 105.2C665.75 106.1 664.7 108.77 664.05 111.2C663.804 111.343 663.576 111.514 663.37 111.71C662.848 112.379 662.373 113.084 661.95 113.82C661.04 115.02 659.56 115.66 658.56 116.82C657.56 117.98 657.35 120.11 658.74 120.69C659.022 120.785 659.314 120.849 659.61 120.88C659.792 120.895 659.973 120.925 660.15 120.97C661.65 121.39 662.24 123.28 662.02 124.84C661.8 126.4 661.02 127.84 660.89 129.4C660.62 132.16 662.24 134.73 663.8 137.05C665.415 139.565 667.199 141.967 669.14 144.24C670.55 145.82 672.14 147.24 673.56 148.76C678.97 154.32 683.27 160.82 688.13 166.86C689.878 169.14 691.866 171.225 694.06 173.08C695.492 174.2 696.992 175.232 698.55 176.17L706.91 181.47C707.858 182.165 708.931 182.671 710.07 182.96C710.442 183.01 710.818 183.01 711.19 182.96C711.24 183.21 711.28 183.45 711.34 183.7C711.99 186.32 713.42 188.7 713.58 191.37C713.74 194.04 713.5 196.77 713.69 199.47C713.87 201.96 714.42 204.47 714.56 206.92C714.84 211.64 713.68 216.3 712.56 220.92C710.87 227.68 709.85 234.58 706.56 240.71C705.64 242.4 704.56 244.12 704.56 246.05C704.56 246.28 704.56 246.52 704.62 246.75L703.12 247.6C702.68 247.85 702.24 248.1 701.84 248.36C699.94 249.6 697.91 250.97 697.13 253.11C696.5 254.84 696.79 256.82 696.03 258.5C695.994 258.575 695.954 258.649 695.91 258.72C695.11 260.28 693.52 261.44 693.16 263.15C692.89 264.46 693.41 265.85 693.16 267.15C693.16 267.15 693.16 267.15 693.16 267.2C692.932 267.853 692.752 268.521 692.62 269.2C692.609 269.422 692.629 269.644 692.68 269.86C692.871 270.618 693.29 271.298 693.88 271.81C694.24 272.156 694.632 272.467 695.05 272.74C695.477 273.02 695.917 273.28 696.37 273.52L696.63 273.66C697.01 273.86 697.39 274.05 697.78 274.23L698.04 274.34C698.49 274.54 698.95 274.72 699.41 274.88L699.73 274.98C700.09 275.1 700.46 275.21 700.83 275.3L701.08 275.38L701.31 275.43L702.31 275.64L702.68 275.71C703.12 275.783 703.57 275.843 704.03 275.89H704.43C704.77 275.89 705.1 275.94 705.43 275.95H705.9C706.25 275.95 706.59 275.95 706.9 275.95H707.26C707.73 275.95 708.2 275.88 708.67 275.82H708.82C709.24 275.76 709.66 275.69 710.08 275.6L710.4 275.53C710.79 275.44 711.18 275.35 711.57 275.23L711.78 275.17C712.25 275.03 712.72 274.88 713.18 274.7C714.772 274.046 716.316 273.281 717.8 272.41C718.8 271.86 719.8 271.3 720.8 270.79C721.542 270.416 722.303 270.082 723.08 269.79C724.971 268.982 727.029 268.639 729.08 268.79C730.092 268.928 731.094 269.132 732.08 269.4C732.08 269.51 732.08 269.62 732.08 269.73C732.893 274.53 733.697 279.33 734.49 284.13C735.799 283.188 737.184 282.355 738.63 281.64C738.36 282.365 738.181 283.121 738.1 283.89C738.04 284.485 738.04 285.085 738.1 285.68C738.19 286.63 738.39 287.68 737.82 288.43C737.47 288.89 736.82 289.15 736.63 289.67C736.491 290.202 736.457 290.755 736.53 291.3C736.489 291.922 736.226 292.508 735.789 292.952C735.353 293.396 734.771 293.669 734.15 293.72C734.436 294.525 734.443 295.403 734.169 296.212C733.895 297.021 733.356 297.715 732.64 298.18C732.222 298.381 731.832 298.637 731.48 298.94C731.138 299.382 730.908 299.9 730.81 300.45C729.488 305.402 726.77 309.87 722.98 313.32C721.558 314.437 720.26 315.705 719.11 317.1C718.399 318.181 717.812 319.338 717.36 320.55C714.693 327.07 711.987 333.593 709.24 340.12C707.72 343.77 706.24 347.48 705.76 351.41C704.56 362.19 694.96 371.33 696.76 382.03C697.124 384.703 698.202 387.228 699.88 389.34C701.88 391.75 704.88 393.13 707.88 394.25C715.59 397.25 723.72 398.89 731.82 400.54L744.54 403.15C747.036 403.724 749.569 404.125 752.12 404.35C755.19 404.56 758.34 404.27 761.33 405.05C763.18 405.53 764.95 406.42 766.86 406.52C768.5 406.61 770.52 406.26 771.49 407.6C772.46 408.94 771.71 410.71 772.63 411.9C774.11 413.79 777.72 411.9 779.33 413.68C779.77 414.364 780.107 415.108 780.33 415.89C780.575 416.373 780.915 416.802 781.33 417.15C781.428 417.714 781.468 418.287 781.45 418.86C781.241 421.182 780.758 423.472 780.01 425.68C778.81 429.74 777.613 433.803 776.42 437.87C775.964 439.306 775.63 440.778 775.42 442.27C775.345 442.995 775.345 443.725 775.42 444.45C775.63 446.66 776.9 448.94 779.01 449.66C780.647 450.093 782.388 449.878 783.87 449.06C785.301 448.313 786.642 447.407 787.87 446.36C790.084 444.685 792.03 442.682 793.64 440.42C798.64 432.94 797.02 422.82 800.53 414.55C802.86 409.03 807.4 404.55 808.91 398.73C809.263 397.623 809.305 396.439 809.03 395.31C808.4 393.31 806.27 392.17 804.28 391.45H804.19C802.555 390.868 800.885 390.39 799.19 390.02C798.77 389.93 798.34 389.86 797.91 389.79C796.958 389.016 796.202 388.03 795.7 386.91C795.622 386.315 795.463 385.733 795.23 385.18C795.071 384.942 794.857 384.745 794.607 384.606C794.356 384.466 794.076 384.389 793.79 384.38C792.79 384.28 791.45 384.64 790.36 384.56C788.13 384.4 786.65 382.21 784.65 381.2C782.65 380.19 780.48 380.44 778.35 380.59C777.588 380.694 776.813 380.647 776.07 380.45C775.182 380.041 774.37 379.483 773.67 378.8C772.439 377.842 771.003 377.184 769.474 376.877C767.945 376.569 766.365 376.622 764.86 377.03C763.903 377.416 762.89 377.646 761.86 377.71C759.91 377.6 758.53 375.86 757.09 374.54C753.15 370.93 747.54 369.98 742.76 367.61C742.028 367.338 741.418 366.813 741.04 366.13C740.49 364.77 741.73 363.41 742.85 362.48L751.07 355.65C760.07 348.17 771.32 342.54 775.5 331.57C775.936 330.099 776.612 328.711 777.5 327.46C777.824 327.078 778.197 326.742 778.61 326.46C780.428 325.282 782.632 324.852 784.76 325.26C787.353 325.84 789.811 326.913 792 328.42C795.58 330.587 799.063 332.92 802.45 335.42C805.805 337.817 808.995 340.437 812 343.26C817.25 348.26 821.62 354.19 826.51 359.58C831.4 364.97 836.99 370 843.78 372.58C850.57 375.16 858.78 375.05 864.61 370.72C871.34 365.72 873.5 356.78 875.2 348.58C878.95 344.96 880.08 339.45 881.91 334.58C883.06 331.49 884.53 328.58 885.77 325.5C887.25 321.88 888.41 318.14 889.57 314.41C890.885 310.664 891.777 306.784 892.23 302.84C892.71 296.61 891.04 289.98 892.79 284.13C895.1 283.62 897.2 282.32 899.47 281.56C902.85 280.45 906.47 280.63 910.05 280.65H910.28C911.514 280.781 912.755 280.489 913.8 279.82C915 278.82 915.19 277.11 915.25 275.56C915.39 271.73 915.15 267.43 912.28 264.95ZM767.39 94.37C766.563 94.5746 765.707 94.6355 764.86 94.55L767.39 94.37Z" fill="url(#paint0_linear)"/>
<path d="M771.33 157.63C770.119 158.658 768.7 159.412 767.17 159.84L760.08 162.38C756.23 163.76 752.21 165.15 748.15 164.65C745.88 164.37 736.15 162.94 734.68 161.17C732.44 158.43 740.29 154.4 742.97 152.09C743.577 151.653 744.14 151.158 744.65 150.61C745.65 149.39 745.52 147.68 745.38 146.14C744.871 142.239 744.697 138.301 744.86 134.37C744.938 133.433 745.071 132.501 745.26 131.58C746.26 126.98 750.54 128.66 753.92 129.88C757.989 131.202 761.923 132.906 765.67 134.97C766.811 135.558 767.803 136.4 768.57 137.43C770.05 139.67 769.46 142.61 769.22 145.43C769.01 147.62 769.02 149.72 770.39 151.31C771.079 151.918 771.712 152.587 772.28 153.31C772.6 154.038 772.681 154.848 772.51 155.625C772.339 156.401 771.926 157.104 771.33 157.63Z" fill="#BE6F72"/>
<path d="M673.39 85.56C674.39 81.13 674.61 76.56 675.81 72.17C676.657 69.3156 677.706 66.5252 678.95 63.82L683.36 53.53C683.763 52.315 684.481 51.2282 685.44 50.38C686.468 49.7433 687.661 49.4233 688.87 49.46C693.18 49.3 697.71 50.64 700.65 53.81C703.59 56.98 704.52 62.11 702.18 65.74C699.38 70.11 693.27 70.99 689.62 74.67C687.29 77.02 686.16 80.29 685.47 83.52C683.65 91.92 684.26 100.63 683.7 109.21C683.52 111.88 683 114.93 680.7 116.31C679.31 116.991 677.764 117.291 676.22 117.18L669.66 117.29C668.56 117.29 664.57 117.98 663.84 117.15C662.56 115.7 665.48 108.48 666.01 106.87C667.19 103.3 668.64 99.82 670.01 96.31C671.2 93.18 673.39 88.95 673.39 85.56Z" fill="#BE6F72"/>
<path d="M808.84 399.72C807.33 405.5 802.79 410 800.46 415.51C796.95 423.76 798.53 433.85 793.57 441.31C791.961 443.576 790.015 445.582 787.8 447.26C786.572 448.304 785.23 449.207 783.8 449.95C782.318 450.768 780.577 450.983 778.94 450.55C776.83 449.83 775.56 447.55 775.35 445.35C775.275 444.629 775.275 443.901 775.35 443.18C775.56 441.691 775.894 440.223 776.35 438.79C777.55 434.743 778.747 430.69 779.94 426.63C780.687 424.428 781.17 422.146 781.38 419.83C781.51 417.31 779.91 414.03 780.59 411.68C780.9 410.62 782.06 409.68 782.59 408.79C783.342 407.509 783.921 406.134 784.31 404.7C785.13 401.91 785.69 398.93 787.41 396.58C788.532 395.186 789.845 393.958 791.31 392.93C792.391 391.982 793.658 391.27 795.03 390.84C796.361 390.606 797.727 390.671 799.03 391.03C800.726 391.392 802.397 391.867 804.03 392.45H804.12C806.12 393.17 808.24 394.28 808.87 396.3C809.176 397.421 809.166 398.605 808.84 399.72V399.72Z" fill="#3F3D56"/>
<path d="M915.24 276.78C915.18 278.33 914.99 280.06 913.79 281.03C912.745 281.699 911.504 281.991 910.27 281.86H910C906.43 281.86 902.8 281.66 899.42 282.77C896.85 283.62 894.49 285.18 891.81 285.49C888.12 285.91 884.65 283.89 881.38 282.13C878.301 280.471 875.14 278.969 871.91 277.63C869.79 276.76 865.46 276.2 864.44 273.88C864.091 272.782 863.797 271.667 863.56 270.54C863.392 270.036 863.188 269.545 862.95 269.07C862.35 268.057 861.969 266.929 861.83 265.76C861.834 264.595 862.236 263.465 862.97 262.56C863.786 261.594 864.784 260.799 865.909 260.221C867.033 259.643 868.26 259.292 869.52 259.19C872.04 258.994 874.575 259.129 877.06 259.59L901.68 263.13C903.58 263.4 905.49 263.67 907.36 264.13C909.136 264.438 910.81 265.172 912.24 266.27C915.15 268.71 915.39 273 915.24 276.78Z" fill="#3F3D56"/>
<path d="M893.6 283.18C890.6 289.51 892.76 297 892.22 304C891.767 307.934 890.874 311.805 889.56 315.54C888.4 319.26 887.24 322.99 885.76 326.6C884.52 329.6 883.05 332.6 881.9 335.66C880.07 340.54 878.9 346.03 875.19 349.66C873.49 357.84 871.33 366.78 864.6 371.74C858.75 376.06 850.6 376.21 843.77 373.6C836.94 370.99 831.39 365.99 826.5 360.6C821.61 355.21 817.24 349.34 811.99 344.32C808.981 341.496 805.784 338.88 802.42 336.49C799.033 334.03 795.55 331.717 791.97 329.55C789.778 328.05 787.321 326.981 784.73 326.4C782.602 325.992 780.398 326.422 778.58 327.6C778.167 327.882 777.793 328.218 777.47 328.6C776.58 329.846 775.904 331.232 775.47 332.7C771.27 343.64 760 349.26 751 356.72L742.78 363.53C741.66 364.46 740.42 365.82 740.97 367.17C741.348 367.853 741.958 368.378 742.69 368.65C747.47 371.01 753.08 371.96 757.02 375.56C758.46 376.88 759.84 378.62 761.79 378.72C762.819 378.66 763.833 378.433 764.79 378.05C766.295 377.643 767.873 377.59 769.402 377.895C770.93 378.201 772.367 378.856 773.6 379.81C774.3 380.493 775.112 381.051 776 381.46C776.743 381.657 777.518 381.704 778.28 381.6C780.41 381.45 782.67 381.26 784.58 382.21C786.49 383.16 788.06 385.4 790.29 385.56C791.38 385.64 792.68 385.28 793.72 385.38C794.006 385.389 794.286 385.466 794.537 385.606C794.787 385.745 795.001 385.942 795.16 386.18C795.393 386.73 795.551 387.308 795.63 387.9C796.04 389.31 797.42 390.17 798.32 391.33C799.7 393.11 799.9 395.53 799.76 397.78C799.307 404.815 796.172 411.409 791 416.2C789.532 417.701 787.659 418.743 785.61 419.2C784.584 419.415 783.516 419.301 782.558 418.876C781.6 418.451 780.799 417.735 780.27 416.83C780.047 416.051 779.71 415.31 779.27 414.63C777.66 412.86 774.05 414.74 772.57 412.85C771.65 411.67 772.31 409.78 771.43 408.56C770.55 407.34 768.43 407.56 766.8 407.49C764.89 407.39 763.12 406.49 761.27 406.02C758.27 405.24 755.13 405.53 752.06 405.32C749.509 405.095 746.976 404.694 744.48 404.12L731.76 401.52C723.66 399.87 715.53 398.2 707.82 395.25C704.87 394.13 701.9 392.75 699.82 390.35C698.143 388.241 697.065 385.719 696.7 383.05C694.89 372.38 704.49 363.26 705.7 352.51C706.13 348.59 707.7 344.89 709.18 341.25C711.893 334.743 714.6 328.233 717.3 321.72C717.737 320.507 718.307 319.347 719 318.26C720.151 316.868 721.448 315.604 722.87 314.49C726.659 311.051 729.378 306.593 730.7 301.65C730.798 301.1 731.028 300.582 731.37 300.14C731.724 299.843 732.114 299.591 732.53 299.39C733.244 298.925 733.781 298.233 734.055 297.426C734.329 296.619 734.324 295.744 734.04 294.94C734.661 294.889 735.243 294.616 735.679 294.172C736.116 293.728 736.379 293.142 736.42 292.52C736.347 291.979 736.381 291.428 736.52 290.9C736.76 290.38 737.36 290.12 737.71 289.66C738.28 288.91 738.08 287.86 737.99 286.92C737.93 286.325 737.93 285.725 737.99 285.13C738.209 283.013 739.156 281.037 740.67 279.54C743.06 277.19 746.46 277.8 749.76 277.24C753.052 276.53 756.267 275.501 759.36 274.17C768.037 270.751 777.173 268.638 786.47 267.9C795.813 267.165 805.197 268.66 813.85 272.26C815.109 272.77 816.296 273.442 817.38 274.26C818.15 274.854 818.781 275.608 819.23 276.47C819.599 277.529 820.054 278.555 820.59 279.54C821.66 281 823.68 281.47 824.85 282.85C826.02 284.23 826.12 286.56 827.09 288.27C828.48 290.71 831.7 291.84 832.66 294.49C832.96 295.33 833 296.25 833.22 297.12C833.76 299.3 835.38 301.02 836.81 302.74C842.052 309.01 845.409 316.639 846.49 324.74C846.81 319.67 850.22 315.18 854.49 312.38C855.64 311.63 856.97 310.8 857.2 309.44C857.49 307.72 855.82 306.19 855.93 304.44C856.051 303.586 856.396 302.778 856.93 302.1C858.836 299.338 860.927 296.708 863.19 294.23C864.42 292.88 865.8 291.23 865.29 289.45C864.9 288.12 863.54 287.34 862.79 286.18C862.352 285.488 862.128 284.683 862.146 283.865C862.164 283.047 862.423 282.252 862.89 281.58C863.59 280.63 864.7 279.94 865.04 278.81C865.43 277.48 864.56 276.04 864.83 274.67C865.195 273.573 865.922 272.632 866.89 272C868.217 270.792 869.725 269.8 871.36 269.06C874 268.06 876.94 268.43 879.74 268.82C884.42 269.47 889.67 270.47 892.31 274.39C894 276.84 894.86 280.56 893.6 283.18Z" fill="#65617D"/>
<path opacity="0.1" d="M915.24 276.78C915.18 278.33 914.99 280.06 913.79 281.03C912.745 281.699 911.504 281.991 910.27 281.86H910C910.41 279.78 912.94 278.59 913.38 276.48C913.455 275.832 913.396 275.175 913.207 274.551C913.018 273.926 912.702 273.347 912.28 272.85C910.14 269.96 906.7 268.36 903.28 267.19C893.618 263.877 883.267 263.103 873.22 264.94C870.488 265.385 867.83 266.203 865.32 267.37C864.488 267.89 863.687 268.458 862.92 269.07C862.32 268.057 861.939 266.929 861.8 265.76C861.804 264.595 862.206 263.465 862.94 262.56C863.756 261.594 864.754 260.799 865.879 260.221C867.003 259.643 868.23 259.292 869.49 259.19C872.01 258.994 874.545 259.129 877.03 259.59L901.65 263.13C903.55 263.4 905.46 263.67 907.33 264.13C909.106 264.438 910.78 265.172 912.21 266.27C915.15 268.71 915.39 273 915.24 276.78Z" fill="black"/>
<path opacity="0.1" d="M808.84 399.72C807.33 405.5 802.79 410 800.46 415.51C796.95 423.76 798.53 433.85 793.57 441.31C791.961 443.576 790.015 445.582 787.8 447.26C786.572 448.304 785.23 449.207 783.8 449.95C782.318 450.768 780.577 450.983 778.94 450.55C776.83 449.83 775.56 447.55 775.35 445.35C775.275 444.629 775.275 443.901 775.35 443.18L775.41 443.34C776.28 445.44 777.7 447.64 779.94 448.01C780.781 448.071 781.625 447.957 782.42 447.677C783.215 447.396 783.943 446.955 784.56 446.38C787.86 443.73 789.78 439.78 791.61 435.97C793.042 433.223 794.175 430.329 794.99 427.34C795.39 425.64 795.58 423.9 795.99 422.2C797.89 413.94 804.36 407.2 805.79 398.83C805.906 398.254 805.933 397.664 805.87 397.08C805.681 396.318 805.392 395.585 805.01 394.9C804.662 394.126 804.407 393.314 804.25 392.48C806.25 393.2 808.37 394.31 809 396.33C809.258 397.453 809.203 398.626 808.84 399.72Z" fill="black"/>
<path opacity="0.1" d="M793.74 385.38C792.814 387.8 791.257 389.927 789.23 391.54C786.383 393.709 783.05 395.151 779.52 395.74C777.877 396.159 776.153 396.138 774.52 395.68C772.3 394.91 770.7 392.83 768.43 392.23C766.81 391.79 765.07 392.18 763.43 391.94C760.48 391.53 758.19 389.28 755.81 387.48C748.52 382 738.95 380.23 731.66 374.75C731.335 374.551 731.067 374.272 730.88 373.94C730.74 373.581 730.689 373.193 730.73 372.81C730.757 369.486 731.504 366.207 732.92 363.2C734.08 361.102 735.461 359.134 737.04 357.33C743.57 349.33 750.13 341.27 757.95 334.52C761.23 331.69 764.81 329.05 768.95 327.77C771.25 327.06 775.79 326.39 778.59 327.59C778.177 327.872 777.803 328.208 777.48 328.59C776.59 329.836 775.914 331.222 775.48 332.69C771.27 343.64 760 349.26 751 356.72L742.78 363.53C741.66 364.46 740.42 365.82 740.97 367.17C741.348 367.853 741.958 368.378 742.69 368.65C747.47 371.01 753.08 371.96 757.02 375.56C758.46 376.88 759.84 378.62 761.79 378.72C762.82 378.66 763.833 378.433 764.79 378.05C766.295 377.643 767.873 377.59 769.402 377.895C770.93 378.201 772.367 378.856 773.6 379.81C774.3 380.493 775.112 381.051 776 381.46C776.743 381.657 777.518 381.704 778.28 381.6C780.41 381.45 782.67 381.26 784.58 382.21C786.49 383.16 788.06 385.4 790.29 385.56C791.4 385.64 792.7 385.26 793.74 385.38Z" fill="black"/>
<path d="M701.77 249.66C699.87 250.88 697.85 252.26 697.07 254.38C696.43 256.11 696.73 258.09 695.96 259.77C695.19 261.45 693.46 262.62 693.08 264.42C692.81 265.73 693.34 267.11 693.08 268.42C692.854 269.101 692.67 269.796 692.53 270.5C692.43 271.99 693.71 273.2 694.96 274.03C697.621 275.761 700.651 276.844 703.807 277.191C706.963 277.538 710.156 277.141 713.13 276.03C715.8 275.03 718.21 273.4 720.77 272.12C723.267 270.682 726.122 269.988 729 270.12C730.65 270.3 732.23 270.9 733.88 271.12C734.695 271.281 735.537 271.241 736.333 271.004C737.129 270.768 737.856 270.34 738.45 269.76C738.96 269.057 739.302 268.246 739.45 267.39C740.84 261.9 740.21 256.08 738.89 250.56C737.57 245.04 735.57 239.73 734.16 234.24C733.16 230.17 732.39 226 730.72 222.15C729.05 218.3 726.24 214.72 722.31 213.25C722 213.098 721.649 213.052 721.31 213.12C721.058 213.225 720.835 213.39 720.66 213.6C717.551 216.894 715.209 220.835 713.8 225.14C712.23 229.93 711.8 235.01 710.36 239.82C709.74 241.82 708.94 244.5 707.36 246.03C705.78 247.56 703.56 248.51 701.77 249.66Z" fill="#3F3D56"/>
<path opacity="0.1" d="M739.48 267.36C739.312 268.219 738.953 269.029 738.43 269.73C737.837 270.312 737.11 270.74 736.313 270.975C735.517 271.211 734.674 271.247 733.86 271.08C732.22 270.88 730.64 270.27 728.99 270.08C726.112 269.947 723.256 270.641 720.76 272.08C718.2 273.36 715.76 274.95 713.11 275.98C709.233 277.45 704.998 277.691 700.98 276.67C698.846 276.134 696.817 275.241 694.98 274.03C693.72 273.21 692.45 272.03 692.55 270.5C692.69 269.799 692.874 269.108 693.1 268.43C693.36 267.12 692.84 265.74 693.1 264.43C693.48 262.63 695.22 261.43 695.98 259.77C696.74 258.11 696.45 256.12 697.08 254.39C697.86 252.26 699.89 250.89 701.79 249.66C703.69 248.43 705.95 247.49 707.47 246C707.666 245.768 707.844 245.521 708 245.26C709.096 243.569 709.901 241.707 710.38 239.75C711.85 234.93 712.25 229.86 713.81 225.06C715.225 220.759 717.571 216.822 720.68 213.53C720.846 213.315 721.067 213.15 721.32 213.05C721.658 212.981 722.008 213.023 722.32 213.17C726.24 214.65 729.05 218.23 730.73 222.08C732.41 225.93 733.12 230.08 734.17 234.16C735.57 239.65 737.58 244.98 738.9 250.49C740.22 256 740.87 261.86 739.48 267.36Z" fill="black"/>
<path opacity="0.1" d="M769.22 145.4C764.518 146.894 759.429 146.597 754.933 144.567C750.436 142.536 746.849 138.915 744.86 134.4C744.938 133.463 745.071 132.531 745.26 131.61C746.26 127.01 750.54 128.69 753.92 129.91C757.989 131.232 761.923 132.936 765.67 135C766.811 135.588 767.803 136.43 768.57 137.46C770.05 139.67 769.46 142.61 769.22 145.4Z" fill="black"/>
<path d="M763.18 145.34C774.226 145.34 783.18 136.386 783.18 125.34C783.18 114.294 774.226 105.34 763.18 105.34C752.134 105.34 743.18 114.294 743.18 125.34C743.18 136.386 752.134 145.34 763.18 145.34Z" fill="#BE6F72"/>
<path opacity="0.1" d="M817.45 274.8C817.45 276.46 815.2 276.99 813.53 276.9C807.53 276.55 801.66 274.9 795.72 275.4C788.21 276.08 781.31 280.23 773.78 280.61C770.88 280.76 767.93 280.33 765.07 280.86C761.37 281.55 758.07 283.8 754.3 284.12C751.03 284.4 747.8 283.17 744.53 283.3C742.244 283.436 740.015 284.071 738 285.16C738.219 283.043 739.166 281.067 740.68 279.57C743.07 277.22 746.47 277.83 749.77 277.27C753.062 276.56 756.277 275.531 759.37 274.2C768.047 270.781 777.183 268.668 786.48 267.93C795.817 267.187 805.198 268.671 813.85 272.26C815.109 272.77 816.296 273.442 817.38 274.26C817.435 274.435 817.458 274.617 817.45 274.8V274.8Z" fill="black"/>
<path d="M753.93 161.86L745.83 158.86L742.41 157.6C741.016 157.016 739.549 156.626 738.05 156.44C734.13 156.14 730.44 158.75 728.35 162.08C726.26 165.41 725.47 169.38 724.8 173.25C723.88 178.543 723.1 183.857 722.46 189.19C721.771 194.006 721.42 198.865 721.41 203.73C721.64 216.11 724.26 228.32 727.14 240.37C728.551 245.713 729.616 251.141 730.33 256.62C730.57 258.88 730.68 261.15 730.92 263.42C731.18 265.97 731.6 268.49 732.02 271.02L734.43 285.39C737.43 283.26 740.84 281.39 744.53 281.28C747.8 281.16 751.04 282.38 754.3 282.1C758.05 281.79 761.37 279.54 765.07 278.85C767.93 278.32 770.88 278.74 773.79 278.6C781.31 278.22 788.22 274.06 795.72 273.39C801.67 272.85 807.58 274.53 813.54 274.88C815.2 274.98 817.45 274.45 817.45 272.78C817.45 271.62 816.29 270.85 815.28 270.27C810.519 267.403 805.989 264.17 801.73 260.6C797.79 257.48 793.79 254.28 791.08 250.06C784.55 239.91 786.79 226.18 781.22 215.47C776.69 206.77 781.22 195.37 781.22 185.56C781.22 180.67 781.22 175.72 780.07 170.97C779.351 168.313 778.456 165.708 777.39 163.17L773.5 153.32C773.419 153.032 773.26 152.772 773.04 152.57C772.779 152.39 772.468 152.295 772.15 152.3C769.814 152.16 767.51 152.898 765.69 154.37C763.86 155.86 762.69 158 760.89 159.55C758.92 161.26 756.38 162.76 753.93 161.86Z" fill="#E3E8F4"/>
<path d="M767 156.18C767.64 153.44 768.33 150.59 770.16 148.45C771.99 146.31 775.33 145.18 777.69 146.71C780.37 148.45 780.48 152.47 782.77 154.71C784.77 156.63 787.77 156.78 790.49 157.03C795.381 157.475 800.184 158.606 804.76 160.39C805.652 160.667 806.465 161.154 807.13 161.81C808.38 163.23 808.13 165.41 808.75 167.18C809.6 169.46 811.95 170.91 812.86 173.18C813.86 175.7 812.86 178.52 812.02 181.11C810.51 185.76 809.56 190.59 808.09 195.26C806.62 199.93 804.53 204.53 801.09 208.05C799.57 209.61 797.31 211.05 795.31 210.12L794.54 215.67C794.315 216.843 794.315 218.047 794.54 219.22C794.656 219.807 794.936 220.349 795.346 220.784C795.756 221.219 796.281 221.53 796.86 221.68C797.01 222.54 797.92 222.95 798.66 223.42C799.206 223.794 799.673 224.272 800.033 224.827C800.393 225.382 800.639 226.004 800.757 226.655C800.875 227.306 800.863 227.974 800.721 228.62C800.579 229.267 800.31 229.878 799.93 230.42C799.3 231.27 798.37 231.94 798.07 232.95C797.62 234.41 798.69 235.95 799.99 236.75C801.29 237.55 802.82 237.92 804.14 238.69C806.88 240.27 808.35 243.38 809.29 246.4C809.99 248.68 810.57 251.15 812.29 252.81C812.95 253.44 813.74 253.92 814.37 254.58C815.46 255.868 816.09 257.484 816.16 259.17C816.434 261.26 815.974 263.381 814.86 265.17C812.86 268.03 809.13 268.88 805.86 270.17C800.55 272.35 796.18 276.25 791.5 279.57C789.594 281.105 787.348 282.161 784.95 282.65C781.71 283.08 778.52 281.65 775.26 281.52C773.31 281.538 771.369 281.793 769.48 282.28L763.48 283.58C763.8 278.93 761.24 274.27 759.81 269.84C757.11 261.5 756.61 252.58 757.25 243.84C757.89 235.1 759.67 226.48 761.43 217.9C762.66 211.9 762.54 205.63 764.43 199.8C766.2 194.19 768.73 188.8 769.66 182.96C771.18 173.51 764.86 165.5 767 156.18Z" fill="#3F3D56"/>
<path d="M812.49 174.67C813.042 175.686 813.43 176.783 813.64 177.92C814.102 179.682 814.969 181.311 816.17 182.68C817.176 183.567 818.069 184.575 818.83 185.68C819.75 187.42 819.4 189.54 819.83 191.44C820.33 193.51 821.78 195.31 821.99 197.44C821.996 198.05 822.053 198.659 822.16 199.26C822.81 201.68 826.37 202.26 827.16 204.68C827.69 206.25 826.78 207.96 826.95 209.61C827.074 210.12 827.105 210.649 827.04 211.17C826.814 211.759 826.417 212.268 825.9 212.63C822.59 215.792 820.299 219.869 819.32 224.34C818.356 228.787 817.85 233.32 817.81 237.87L813.9 232.7C813.486 232.073 812.957 231.53 812.34 231.1C811.84 230.8 811.26 230.65 810.75 230.35C809.27 229.51 808.69 227.73 808.12 226.13C806.537 221.701 804.165 217.595 801.12 214.01C799.53 212.14 797.68 210.26 797.33 207.83C797.225 206.714 797.286 205.588 797.51 204.49C798.51 197.94 799.58 191.23 802.77 185.42C804.26 182.7 806.19 180.24 807.62 177.48C808.58 175.65 809.93 170.89 812.49 174.67Z" fill="#3F3D56"/>
<path d="M713.84 180.96C713.858 181.802 713.644 182.632 713.22 183.36C712.838 183.803 712.34 184.131 711.782 184.308C711.224 184.484 710.628 184.502 710.06 184.36C708.921 184.074 707.849 183.572 706.9 182.88C704.113 181.12 701.327 179.357 698.54 177.59C696.984 176.652 695.485 175.624 694.05 174.51C691.857 172.658 689.869 170.576 688.12 168.3C683.26 162.3 678.96 155.79 673.55 150.3C672.08 148.8 670.55 147.36 669.13 145.79C667.189 143.521 665.405 141.122 663.79 138.61C662.23 136.3 660.61 133.74 660.88 130.98C661.04 129.42 661.79 127.98 662.01 126.43C662.23 124.88 661.64 122.99 660.14 122.57C659.963 122.525 659.782 122.495 659.6 122.48C659.304 122.449 659.012 122.385 658.73 122.29C657.34 121.71 657.55 119.56 658.55 118.43C659.55 117.3 661.03 116.67 661.94 115.43C662.363 114.694 662.838 113.989 663.36 113.32C664.03 112.746 664.83 112.344 665.69 112.15C671.458 110.45 677.56 110.22 683.44 111.48C684.44 111.7 685.58 112.1 685.88 113.07C686 113.543 686 114.037 685.88 114.51C685.439 116.482 685.185 118.491 685.12 120.51C685.118 120.931 685.142 121.352 685.19 121.77C685.66 126.01 688.41 129.6 691.09 132.91C694.27 136.85 697.5 140.76 700.74 144.66C702.492 146.92 704.451 149.012 706.59 150.91C708.59 152.57 711.18 153.91 712.74 156.04C714.01 157.76 713.6 160.11 713.74 162.18C714.205 168.43 714.239 174.705 713.84 180.96V180.96Z" fill="#3F3D56"/>
<path d="M840.84 222.68C841.828 221.72 842.719 220.665 843.5 219.53C844.341 218.124 845.012 216.624 845.5 215.06L851.3 198.61C852.22 196.01 853.14 193.4 854.3 190.87C855.5 188.14 856.92 185.51 858.23 182.87C861.599 175.922 864.205 168.63 866 161.12C866.316 160.088 866.421 159.003 866.31 157.93C866.03 156.2 864.72 154.85 863.47 153.62C862.213 152.262 860.78 151.079 859.21 150.1C858.421 149.61 857.543 149.281 856.626 149.133C855.71 148.986 854.773 149.022 853.87 149.24C851.31 149.99 849.7 152.61 849.11 155.24C848.52 157.87 848.74 160.56 848.49 163.24C848.13 167.08 846.81 170.79 846.49 174.64C846.32 176.87 846.49 179.12 846.22 181.34C845.728 184.255 844.711 187.057 843.22 189.61C839.971 195.691 835.581 201.089 830.29 205.51C828.841 206.58 827.536 207.834 826.41 209.24C825.47 210.646 824.833 212.234 824.54 213.9C823.876 216.438 824.164 219.13 825.35 221.47C826.98 224.25 830.11 225.47 833.1 226.09C837.14 226.93 838.07 225.55 840.84 222.68Z" fill="#BE6F72"/>
<path d="M763.3 96.36C764.161 94.7422 765.479 93.4139 767.091 92.5407C768.702 91.6675 770.535 91.2881 772.36 91.45C774.199 91.7756 775.909 92.6095 777.298 93.8572C778.688 95.105 779.7 96.7167 780.22 98.51C780.69 100 780.88 101.65 781.7 102.93C782.94 104.86 785.24 105.42 786.96 106.82C787.987 107.774 788.813 108.924 789.39 110.201C789.967 111.479 790.283 112.859 790.32 114.26C790.416 117.122 789.964 119.977 788.99 122.67C788.577 123.819 788.243 124.995 787.99 126.19C787.79 127.35 787.77 128.53 787.59 129.69C787.368 131.194 786.848 132.639 786.06 133.939C785.272 135.239 784.231 136.368 783 137.26C782.649 137.546 782.212 137.705 781.76 137.71C780.98 137.62 780.5 136.71 780.21 135.89C778.62 131.3 779 125.69 776.07 122.03C774.737 120.554 773.126 119.354 771.33 118.5C770.597 118.027 769.772 117.717 768.91 117.59C767.642 117.658 766.423 118.104 765.41 118.87C763.299 120.286 760.957 121.321 758.49 121.93C757.259 122.222 755.978 122.235 754.741 121.968C753.504 121.702 752.342 121.163 751.34 120.39C749.96 119.25 748.95 117.54 747.42 116.65C745.89 115.76 744.29 115.81 742.78 115.2C741.818 114.791 740.962 114.167 740.277 113.377C739.592 112.586 739.097 111.65 738.828 110.639C738.56 109.629 738.526 108.57 738.729 107.544C738.933 106.518 739.367 105.552 740 104.72C741 103.52 742.48 102.84 743.37 101.51C744.52 99.79 744.42 97.43 744.97 95.37C745.295 94.0667 745.927 92.8598 746.812 91.8493C747.697 90.8389 748.811 90.0541 750.06 89.56C751.272 89.1485 752.571 89.0698 753.824 89.3318C755.076 89.5939 756.235 90.1873 757.18 91.05C758.18 91.95 758.98 93.11 759.96 94.05C760.927 94.9761 762.112 95.6445 763.405 95.994C764.698 96.3434 766.058 96.3627 767.36 96.05" fill="#3F3D56"/>
<path opacity="0.1" d="M779.74 243.55C779.158 244.068 778.745 244.75 778.556 245.507C778.367 246.263 778.41 247.059 778.68 247.79C778.9 248.26 789.22 246.27 790.31 246.12C793.03 245.73 797.8 245.92 799.63 243.43C802.89 239.02 792.79 240 790.94 240.16C787.42 240.46 782.42 240.94 779.74 243.55Z" fill="black"/>
<path d="M685.86 114.55C685.419 116.522 685.165 118.531 685.1 120.55C682.1 121.16 678.98 120.16 676.1 119.16L667.83 116.34C667.327 116.019 666.72 115.901 666.133 116.01C665.546 116.12 665.023 116.449 664.67 116.93C663.34 118.31 661.51 120.93 659.67 122.48C659.374 122.449 659.082 122.385 658.8 122.29C657.41 121.71 657.62 119.56 658.62 118.43C659.62 117.3 661.1 116.67 662.01 115.43C662.433 114.694 662.908 113.989 663.43 113.32C664.1 112.746 664.9 112.344 665.76 112.15C671.528 110.45 677.63 110.22 683.51 111.48C684.51 111.7 685.65 112.1 685.95 113.07C686.047 113.563 686.016 114.073 685.86 114.55Z" fill="#3F3D56"/>
<path opacity="0.1" d="M685.86 114.55C685.419 116.522 685.165 118.531 685.1 120.55C682.1 121.16 678.98 120.16 676.1 119.16L667.83 116.34C667.327 116.019 666.72 115.901 666.133 116.01C665.546 116.12 665.023 116.449 664.67 116.93C663.34 118.31 661.51 120.93 659.67 122.48C659.374 122.449 659.082 122.385 658.8 122.29C657.41 121.71 657.62 119.56 658.62 118.43C659.62 117.3 661.1 116.67 662.01 115.43C662.433 114.694 662.908 113.989 663.43 113.32C664.1 112.746 664.9 112.344 665.76 112.15C671.528 110.45 677.63 110.22 683.51 111.48C684.51 111.7 685.65 112.1 685.95 113.07C686.047 113.563 686.016 114.073 685.86 114.55Z" fill="black"/>
<path opacity="0.1" d="M761.51 304.4C762.95 304.88 764.51 305.58 765 307.02L753.42 304.08L747.42 302.55C746.36 302.28 742.56 301.97 741.86 301.14C740.86 299.92 744.41 300.76 745.05 300.85C746.99 301.14 748.93 301.44 750.86 301.79C754.5 302.44 758 303.51 761.51 304.4Z" fill="black"/>
<path opacity="0.1" d="M766 314.65C765 313.98 762.13 314.06 760.9 313.77C759.1 313.34 757.33 312.77 755.56 312.22C751.97 311.05 748.41 309.72 744.72 308.86C744.04 308.71 741.72 308.67 741.83 307.81C741.94 306.95 744.15 306.65 744.7 306.61C747.97 306.37 752.05 307.9 755.09 308.99C758.965 310.378 762.634 312.282 766 314.65V314.65Z" fill="black"/>
<path opacity="0.1" d="M758.66 295.26C754.99 294.26 751.66 291.98 747.88 291.54C746.895 291.577 745.926 291.281 745.13 290.7C744.686 290.263 744.377 289.708 744.24 289.1C746.77 288.97 749.71 290.04 752.01 291.05C753.276 291.593 754.494 292.242 755.65 292.99C756.49 293.5 757.75 294.97 758.66 295.26Z" fill="black"/>
<path d="M828.62 205.72C828 209.877 828.897 214.119 831.149 217.669C833.4 221.219 836.855 223.839 840.88 225.05C840.39 227.42 837.94 228.73 836.21 230.42C833.77 232.79 832.51 236.34 829.63 238.14C826.42 240.14 822.29 239.36 818.63 238.52C818.297 238.483 817.99 238.322 817.77 238.07C817.695 237.95 817.64 237.818 817.61 237.68C816.4 233.25 815.61 228.52 816.85 224.08C817.85 220.3 820.25 217.08 822.17 213.74C824.09 210.4 824.27 206.82 828.62 205.72Z" fill="#3F3D56"/>
<path d="M739.21 148.38C735.339 148.662 731.581 149.806 728.21 151.73C725.97 153.01 723.67 154.73 721.11 154.42C719.6 154.25 718.11 153.42 716.64 153.82C715.812 154.154 715.04 154.613 714.35 155.18C714 155.459 713.584 155.642 713.143 155.712C712.701 155.782 712.249 155.737 711.83 155.58L710.83 169.42C710.45 174.68 710.08 180.05 711.34 185.18C711.99 187.8 713.42 190.18 713.58 192.84C713.74 195.5 713.5 198.23 713.69 200.92C713.87 203.41 714.42 205.86 714.56 208.35C714.84 213.05 713.68 217.71 712.56 222.28C710.87 229.02 709.85 235.91 706.56 242.01C705.64 243.7 704.56 245.42 704.56 247.34C704.56 247.58 704.56 247.81 704.62 248.04C703.62 248.59 702.69 249.11 701.84 249.65C699.94 250.88 697.91 252.25 697.13 254.38C696.5 256.11 696.79 258.09 696.03 259.76C695.27 261.43 693.53 262.62 693.15 264.42C692.88 265.73 693.4 267.11 693.15 268.42C692.924 269.098 692.74 269.789 692.6 270.49C692.5 271.99 693.77 273.2 695.03 274.02C696.867 275.231 698.896 276.124 701.03 276.66L707 252.96C712.443 242.896 716.971 232.364 720.53 221.49C721.548 217.936 722.856 214.471 724.44 211.13C725.572 209.24 726.574 207.276 727.44 205.25C728.35 202.73 728.44 200 728.88 197.34C729.402 194.235 730.189 191.181 731.23 188.21C732.31 185 733.56 181.8 733.78 178.43C734.11 173.61 732.36 168.52 734.22 164.06C735.01 162.391 736.037 160.845 737.27 159.47C739.85 156.31 742.2 153 744.78 149.84C743.44 148.41 741.21 148.26 739.21 148.38Z" fill="#3F3D56"/>
<g opacity="0.1">
<path opacity="0.1" d="M767.39 93.07L766.14 93.16L766 93.26C766.468 93.241 766.934 93.1773 767.39 93.07V93.07Z" fill="black"/>
<path opacity="0.1" d="M790.27 113.83C790.061 115.818 789.632 117.777 788.99 119.67C788.577 120.819 788.243 121.995 787.99 123.19C787.79 124.35 787.77 125.53 787.59 126.69C787.368 128.194 786.848 129.639 786.06 130.939C785.272 132.239 784.231 133.368 783 134.26C782.649 134.546 782.212 134.705 781.76 134.71C780.98 134.62 780.5 133.71 780.21 132.89C778.62 128.3 779 122.69 776.07 119.03C774.737 117.554 773.126 116.354 771.33 115.5C770.598 115.028 769.772 114.717 768.91 114.59C767.642 114.658 766.423 115.104 765.41 115.87C763.299 117.286 760.957 118.321 758.49 118.93C757.259 119.222 755.978 119.235 754.741 118.968C753.504 118.702 752.342 118.163 751.34 117.39C749.96 116.25 748.95 114.54 747.42 113.65C745.89 112.76 744.29 112.81 742.78 112.2C741.837 111.797 740.996 111.187 740.321 110.415C739.646 109.643 739.153 108.729 738.88 107.74C738.845 107.615 738.818 107.488 738.8 107.36C738.55 108.476 738.578 109.637 738.88 110.74C739.153 111.729 739.646 112.643 740.321 113.415C740.996 114.187 741.837 114.797 742.78 115.2C744.29 115.81 745.99 115.82 747.42 116.65C748.85 117.48 749.96 119.25 751.34 120.39C752.342 121.163 753.504 121.702 754.741 121.968C755.978 122.235 757.259 122.222 758.49 121.93C760.957 121.321 763.299 120.286 765.41 118.87C766.423 118.104 767.642 117.658 768.91 117.59C769.772 117.717 770.598 118.028 771.33 118.5C773.104 119.371 774.69 120.58 776 122.06C778.93 125.72 778.55 131.33 780.14 135.92C780.43 136.75 780.91 137.65 781.69 137.74C782.17 137.742 782.635 137.572 783 137.26C784.236 136.366 785.281 135.232 786.071 133.927C786.861 132.621 787.381 131.17 787.6 129.66C787.78 128.5 787.8 127.32 788 126.16C788.253 124.965 788.587 123.789 789 122.64C789.974 119.947 790.426 117.092 790.33 114.23C790.31 114.11 790.29 113.97 790.27 113.83Z" fill="black"/>
</g>
<path d="M727 194.07L726.32 203.2C726.22 204.44 723.85 233.96 706.37 268.46C691.37 298.05 662.18 336.59 607.07 358.25C602.77 359.95 598.307 361.537 593.68 363.01L588.52 346.81C601.474 342.733 613.953 337.275 625.74 330.53C653.83 314.31 675.67 291.16 690.9 261.37C698.98 245.509 704.739 228.569 708 211.07H645.3V194.07H727Z" fill="#FFBA09"/>
<path opacity="0.1" d="M600.32 358.26C655.42 336.6 684.62 298.07 699.61 268.48C717.09 233.98 719.47 204.48 719.56 203.22L720.24 194.09H727.24L726.56 203.22C726.47 204.46 724.09 233.98 706.61 268.48C691.61 298.07 662.42 336.6 607.32 358.26C603.02 359.96 598.553 361.55 593.92 363.03L593.24 360.9C595.653 360.04 598.013 359.16 600.32 358.26Z" fill="white"/>
<path d="M490 346.81L484.84 363.01C480.207 361.53 475.74 359.94 471.44 358.24C416.34 336.58 387.14 298.05 372.15 268.46C354.67 233.96 352.29 204.46 352.2 203.2L351.52 194.07H433.18V211.07H370.47C373.748 228.572 379.524 245.511 387.62 261.37C402.85 291.16 424.68 314.31 452.77 330.52C464.558 337.272 477.041 342.734 490 346.81V346.81Z" fill="#FFBA09"/>
<path opacity="0.1" d="M478.18 358.26C423.08 336.6 393.88 298.07 378.89 268.48C361.41 233.98 359.03 204.48 358.94 203.22L358.26 194.09H351.26L351.94 203.22C352.03 204.46 354.41 233.98 371.89 268.48C386.89 298.07 416.08 336.6 471.18 358.26C475.48 359.96 479.947 361.55 484.58 363.03L485.26 360.9C482.853 360.04 480.493 359.16 478.18 358.26Z" fill="white"/>
<path d="M633.59 503.41V595.08H444.92V503.41L450.92 495.41C512.06 473.71 524.45 417.12 526.92 394.73C527.288 391.636 527.498 388.525 527.55 385.41H550.88C550.932 388.525 551.142 391.636 551.51 394.73C554.02 417.12 566.41 473.73 627.51 495.41L633.59 503.41Z" fill="#FFBA09"/>
<path opacity="0.1" d="M633.59 503.41H444.92V514.91H633.59V503.41Z" fill="black"/>
<path opacity="0.1" d="M460.92 495.41C522.06 473.71 534.45 417.12 536.92 394.73C537.288 391.636 537.498 388.525 537.55 385.41H527.55C527.498 388.525 527.288 391.636 526.92 394.73C524.41 417.12 512.02 473.73 450.92 495.41L444.92 503.41V595.08H454.92V503.41L460.92 495.41Z" fill="white"/>
<path opacity="0.1" d="M416.26 194.07H433.18V211.07H417.76C417.153 205.47 416.653 199.803 416.26 194.07Z" fill="black"/>
<path opacity="0.1" d="M490 346.81L484.84 363.01C480.207 361.53 475.74 359.94 471.44 358.24C464.367 349.602 458.116 340.322 452.77 330.52C464.558 337.272 477.041 342.734 490 346.81Z" fill="black"/>
<path opacity="0.1" d="M588.51 346.81C601.464 342.733 613.943 337.275 625.73 330.53C620.381 340.333 614.131 349.616 607.06 358.26C602.76 359.96 598.297 361.547 593.67 363.02L588.51 346.81Z" fill="black"/>
<path opacity="0.1" d="M662.24 194.07C661.847 199.803 661.347 205.47 660.74 211.07H645.33V194.07H662.24Z" fill="black"/>
<path opacity="0.1" d="M551.55 394.73C543.429 396.303 535.081 396.303 526.96 394.73C527.328 391.636 527.538 388.525 527.59 385.41H550.92C550.972 388.525 551.182 391.636 551.55 394.73V394.73Z" fill="black"/>
<path d="M418.26 165.91C418.69 291.97 472.69 393.91 539.26 393.91C605.83 393.91 659.82 291.97 660.26 165.91H418.26Z" fill="#FFBA09"/>
<path opacity="0.1" d="M439.76 165.91H418.26C418.69 291.97 472.69 393.91 539.26 393.91C542.862 393.903 546.458 393.599 550.01 393C488.47 382.72 440.17 285.11 439.76 165.91Z" fill="white"/>
<path d="M603.42 538.5H475.09V571.5H603.42V538.5Z" fill="#3F3D56"/>
<path opacity="0.1" d="M481.09 543H603.42V538.5H475.09V571.5H481.09V543Z" fill="white"/>
<path d="M349.82 287.62C347.51 286.85 333.91 276.09 332.88 271.22C331.85 266.35 340.07 220.98 340.07 220.98C340.07 220.98 339.31 220.98 338.07 220.83V220.1L339.76 160.5C339.76 160.5 346.69 120.5 333.6 122.83C320.51 125.16 328.72 160.5 328.72 160.5C328.72 160.5 327.23 178.44 326.18 183.82C325.18 189.01 320.6 210.15 323.72 216.72C323.834 216.953 323.961 217.18 324.1 217.4V217.4C324.1 217.4 324.62 239.95 318.97 243.03C313.58 245.96 311.34 260.71 311.15 262.03L310.86 261.91C309.251 260.903 307.838 259.612 306.69 258.1C306.57 257.95 306.48 257.79 306.37 257.63C310.049 253.491 312.032 248.116 311.923 242.579C311.813 237.043 309.62 231.751 305.78 227.76C303.995 225.906 301.9 224.376 299.59 223.24C299.523 221.329 299.07 219.452 298.26 217.72C295.66 212.16 281.26 204.89 271.03 204.72C266.31 204.58 262.44 205.92 261.03 209.61C260.31 211.48 260.53 213.61 260.23 215.55C259.63 219.55 257.06 222.68 253.76 225.17C252.427 223.682 250.987 222.295 249.45 221.02C246.11 218.46 239.45 210.02 239.45 210.02C239.45 210.02 218.66 188.49 217.12 182.59C215.58 176.69 194.81 141.26 190.19 147.43C185.57 153.6 206.1 180.49 206.1 180.49C206.1 180.49 210 190.26 213 193.56C216 196.86 239 230.26 239 230.26L240.1 232.54C235.24 235.1 230.8 238.36 229.23 243.44C226.93 250.92 231.96 258.44 235.44 265.44C242.22 279.1 243.19 296.52 234.44 309C226.6 320.02 213 325.26 200.27 329.84C206.418 334.668 214.055 337.203 221.87 337.01C218.93 345.53 208.51 348.35 199.63 349.93C204.29 354.41 210.96 356.04 217.36 357.03C220.494 357.564 223.671 357.815 226.85 357.78H227.63L228.41 357.72C229.494 357.648 230.572 357.511 231.64 357.31C236.26 356.37 240.75 353.85 243.11 349.77C245.11 346.28 245.81 341.52 249.44 339.77C250.385 339.343 251.404 339.102 252.44 339.06H252.33C253.01 339.06 253.71 339.06 254.39 339.06L269.52 339.21C270.15 339.21 270.8 339.21 271.45 339.21C275.72 339.11 280.28 338.37 282.45 334.84C283.343 333.126 283.812 331.223 283.82 329.29C284.14 324.5 283.82 319.57 283.95 314.74C285.24 323.53 286.59 337.23 283.38 342.29C280.772 346.124 277.611 349.551 274 352.46C273.092 353.223 272.261 354.074 271.52 355C271.03 355.35 270.74 355.54 270.74 355.54L270.43 356.47C269.29 358.199 268.464 360.115 267.99 362.13C267.815 362.648 267.751 363.196 267.8 363.74C268.15 364.45 265.3 367.38 266.13 368.61C259.01 376.96 257.66 389.61 257.66 389.61L244.66 409.35C237.98 426.9 227.98 428.7 227.98 428.7C227.98 428.7 204.49 412.94 203.85 412.17C203.21 411.4 194.23 407.55 194.23 407.55C193.171 405.693 191.555 404.217 189.61 403.33C186.53 402.05 186.27 397.33 186.27 397.33C185.89 386.18 179.34 385.33 179.34 385.33C174.06 384.88 170.03 385.82 166.93 387.54L165.99 387.61C161.45 387.98 155.99 388.39 149.99 388.79C133.3 389.89 129.33 400.7 129.33 400.7C129.33 400.7 127.28 403.01 129.97 405.51C132.66 408.01 149.88 405.51 150.61 405.45C149.298 405.592 147.97 405.501 146.69 405.18C149.4 405.08 153.13 404.98 156.31 404.98H157.08C156.88 406.666 156.783 408.362 156.79 410.06C156.79 413.26 165.64 415.31 165.64 415.31L192.59 439.31C192.59 439.31 209.53 446.88 220.31 457.77C231.09 468.66 240.62 459.26 240.62 459.26C252.03 456.44 284.86 416.75 284.89 416.71C284.89 417.87 285.58 456.47 286.89 464.22C286.942 464.613 287.039 464.999 287.18 465.37C288.72 468.7 286.66 477.8 285.77 481.64C285.202 484.854 284.984 488.119 285.12 491.38C285.12 491.38 272.81 538.38 273.83 542.51C274.85 546.64 267.16 565.83 267.16 565.83V581.83L268.5 581.76C268.326 582.018 268.165 582.285 268.02 582.56L267.93 582.73C267.93 582.73 276.14 584.52 281.66 584.01C287.18 583.5 296.66 588.26 296.66 588.26C296.66 588.26 299.87 589.78 309.75 590.42C319.63 591.06 319.63 586.06 319.63 586.06C318.5 579.25 302.89 576.97 302.41 576.9C301.15 576.11 299.97 575.25 299 574.51L298.8 574.35C298.865 574.2 298.922 574.046 298.97 573.89C300.64 567.09 291.4 564.14 291.4 564.14V562.48C297.4 559.4 298.59 538.26 298.59 538.26C298.59 538.26 307.59 512.12 308.85 507.76C310.11 503.4 308.85 496.87 308.85 496.87L309.75 491.23C309.75 491.23 311.68 487.39 311.68 486.62C311.93 484.668 312.681 482.815 313.86 481.24C315.27 479.57 312.32 475.6 312.32 475.6L314.89 468.94V461.63L320.89 435.11C320.89 435.11 327.18 404.22 325 394.11C322.82 384 327.57 378.86 327.57 378.86C327.142 379.085 326.701 379.285 326.25 379.46C326.85 378.072 327.368 376.649 327.8 375.2L341.3 376.87V377.07H346.17C346.17 377.07 344.63 358.07 344.63 350.41C344.63 342.75 349.82 315.26 349.82 315.26C349.82 315.26 352.13 288.39 349.82 287.62ZM289.89 265.44C289.89 266.19 289.82 266.97 289.77 267.77L289.5 268.18L289 267.76L288.39 268.71L288.21 268.8C286.89 268.12 286.21 264.23 285.26 265.07L285.13 265.18C284.92 264.94 284.71 264.87 284.49 265.07L284.29 265.24C284.29 264.95 284.29 264.65 284.29 264.35C286.119 264.821 288.001 265.059 289.89 265.06C289.9 265.19 289.89 265.32 289.89 265.44ZM334.79 353.92H335.08L334.6 355.18C334.66 354.76 334.72 354.35 334.79 353.92V353.92ZM285.5 580.69L283.66 580.23L284.66 580.06L285.59 580.67L285.7 580.75L285.5 580.69ZM304.3 578C303.69 577.68 303.07 577.31 302.47 576.93C302.67 577.04 303.46 577.45 304.3 578V578Z" fill="url(#paint1_linear)"/>
<path d="M341.43 335.03L329.32 366.59H332.26L320.87 375.67L341.43 378.23V335.03Z" fill="#F86D70"/>
<path opacity="0.1" d="M341.43 335.03L329.32 366.59L326.27 365.77L320.87 375.67L341.43 378.23V335.03Z" fill="black"/>
<path d="M322.44 355.22H341.43L348.4 297.87H322.44V355.22Z" fill="#F86D70"/>
<path opacity="0.1" d="M322.44 355.22H341.43L348.4 297.87H322.44V355.22Z" fill="black"/>
<path d="M285.35 311.45L289.45 310.76L298.87 309.16C298.87 309.16 327.16 302.78 333 302.26C336.538 301.793 339.988 300.809 343.24 299.34C344.77 298.68 345.74 298.18 345.74 298.18L335.55 279.57L319.74 267.85C319.74 267.85 309.74 265.72 305.51 259.9C304.566 258.648 303.951 257.179 303.722 255.627C303.494 254.076 303.658 252.492 304.2 251.02C306.78 243.02 288.79 258.67 288.79 258.67C288.79 258.67 288.96 262.42 288.79 267.2C288.79 268.14 288.7 269.12 288.63 270.12C288.63 270.78 288.54 271.44 288.47 272.12C288.03 276.87 287.13 281.76 285.35 284.68C281 291.82 285.35 311.45 285.35 311.45Z" fill="#FBBEBE"/>
<path opacity="0.1" d="M288.79 267.6H289.19C289.91 267.6 290.49 266.07 291.19 266C296.82 265.46 301.96 264.28 305.53 260.29C304.589 259.038 303.975 257.571 303.747 256.022C303.518 254.472 303.681 252.89 304.22 251.42C306.8 243.42 288.81 259.06 288.81 259.06C288.81 259.06 289 262.82 288.79 267.6Z" fill="black"/>
<path d="M266.89 244.92C266.889 247.799 267.455 250.65 268.556 253.31C269.657 255.97 271.272 258.387 273.307 260.423C275.343 262.458 277.76 264.073 280.42 265.174C283.08 266.275 285.931 266.841 288.81 266.84C289.53 266.84 290.24 266.84 290.95 266.74C295.174 266.326 299.186 264.694 302.501 262.044C305.815 259.393 308.289 255.837 309.621 251.808C310.954 247.779 311.088 243.449 310.008 239.345C308.928 235.241 306.679 231.539 303.535 228.688C300.392 225.837 296.488 223.959 292.298 223.284C288.108 222.609 283.813 223.164 279.932 224.883C276.052 226.602 272.754 229.41 270.439 232.967C268.124 236.524 266.891 240.676 266.89 244.92Z" fill="#FBBEBE"/>
<path d="M260.16 211.65C259.44 213.51 259.66 215.59 259.37 217.56C258.3 224.67 251.07 228.93 244.53 231.91C237.99 234.89 230.61 238.42 228.53 245.29C226.25 252.72 231.23 260.17 234.69 267.14C241.43 280.72 242.39 298.04 233.69 310.46C225.96 321.46 212.49 326.68 199.81 331.26C205.913 336.061 213.497 338.586 221.26 338.4C218.35 346.87 208 349.68 199.18 351.24C203.81 355.7 210.44 357.32 216.79 358.3C221.42 359.02 226.17 359.49 230.79 358.56C235.41 357.63 239.79 355.12 242.17 351.06C244.17 347.59 244.85 342.86 248.46 341.11C250.09 340.469 251.845 340.212 253.59 340.36L268.59 340.52C273.26 340.52 278.79 340.16 281.2 336.17C282.089 334.465 282.555 332.572 282.56 330.65C283.21 320.81 281.32 310.41 285.37 301.43C286.59 298.72 278.76 294.43 279.58 291.56C282.4 281.69 283.11 273.92 283.08 263.65C283.08 255.7 288.25 248.85 292.52 242.14C296.79 235.43 300.36 226.96 296.99 219.76C293.19 211.73 264.65 200.06 260.16 211.65Z" fill="#3F3D56"/>
<path d="M280.13 577.81L283.95 580.34L284.54 580.73L284.65 580.8L289.18 583.8L299.76 585.58L309.06 584.94C309.06 584.94 311.74 579.34 307.53 579.47C306.182 579.401 304.867 579.021 303.69 578.36L303.11 578.07C302.5 577.75 301.89 577.39 301.29 577.01C300.04 576.22 298.86 575.36 297.91 574.63C296.51 573.55 295.58 572.73 295.58 572.73L280.13 577.81Z" fill="#FBBEBE"/>
<path opacity="0.1" d="M284 580.34L284.59 580.73L284.7 580.8L289.23 583.8L299.81 585.58L309.11 584.94C309.11 584.94 311.79 579.34 307.58 579.47C306.232 579.401 304.917 579.021 303.74 578.36C304.48 578.94 305.1 579.57 305.16 580.1C305.33 581.53 298.28 584.1 298.28 584.1L288.34 581.47C288.34 581.47 286.65 580.99 284.34 580.39L284.12 580.33L284 580.34Z" fill="black"/>
<path d="M267 582.78C267 582.78 275.15 584.56 280.63 584.05C286.11 583.54 295.55 588.26 295.55 588.26C295.55 588.26 298.74 589.76 308.55 590.4C318.36 591.04 318.36 586.06 318.36 586.06C317.24 579.29 301.74 577.06 301.26 576.96C301.45 577.06 302.26 577.47 303.08 578.02C304.18 578.74 305.37 579.68 305.46 580.44C305.63 581.86 298.58 584.44 298.58 584.44L288.64 581.82C288.64 581.82 286.95 581.33 284.64 580.73H284.42C280.995 579.797 277.515 579.079 274 578.58C269.72 578.12 267.53 581.76 267.08 582.58C267.047 582.644 267.021 582.711 267 582.78V582.78Z" fill="#3F3D56"/>
<path d="M138.54 402.95L142.87 406.27C142.87 406.27 144.13 406.21 146.01 406.15H146.61C149.3 406.05 153.01 405.95 156.16 405.95C158.196 405.858 160.237 405.972 162.25 406.29C164.41 407.05 168.25 393.93 168.25 393.93L163.91 392.93L162.47 392.59L161.47 392.35L157.94 391.52L147.24 392.74L139.72 397.58L138.54 402.95Z" fill="#FBBEBE"/>
<path opacity="0.1" d="M138.54 402.95L142.87 406.27C142.87 406.27 144.13 406.21 146.01 406.15C145.147 405.817 144.436 405.181 144.01 404.36C141.21 396.59 155.1 393.27 155.1 393.27L161.57 392.99L162.83 392.93H163.83L162.39 392.59L161.39 392.35L157.86 391.52L147.16 392.74L139.64 397.58L138.54 402.95Z" fill="black"/>
<path d="M130 406.46C132.62 408.88 149.78 406.46 150.5 406.4C149.198 406.547 147.88 406.455 146.61 406.13C145.981 406.017 145.386 405.766 144.867 405.394C144.348 405.022 143.919 404.539 143.61 403.98C140.81 396.2 154.7 392.89 154.7 392.89L161.17 392.61L162.42 392.55L178.15 391.87L178.91 387.54C178.91 387.54 173.8 388.02 165.78 388.66C161.27 389.03 155.78 389.44 149.85 389.83C133.28 390.93 129.34 401.68 129.34 401.68C129.34 401.68 127.33 403.98 130 406.46Z" fill="#3F3D56"/>
<path d="M322.45 218.76C322.556 218.997 322.684 219.225 322.83 219.44L326.65 225.04L336.59 226.04L336.7 222.1L338.37 162.82C338.37 162.82 345.25 123.06 332.25 125.35C319.25 127.64 327.41 162.82 327.41 162.82C327.41 162.82 325.93 180.66 324.89 186.02C323.88 191.2 319.35 212.26 322.45 218.76Z" fill="#FBBEBE"/>
<path d="M300.14 366L302.97 370.84L309.3 381.67C309.3 381.67 320.78 385.88 323.72 382.67C325.33 380.92 327.07 374.81 328.29 369.67C329.29 365.51 329.96 362 329.96 362L300.14 366Z" fill="#FBBEBE"/>
<path opacity="0.1" d="M300.14 366L302.97 370.84C303.147 370.687 303.308 370.516 303.45 370.33C306.65 366.25 320.74 369.46 328.29 369.72C329.29 365.56 329.96 362.05 329.96 362.05L300.14 366Z" fill="black"/>
<path opacity="0.1" d="M156.16 405.93C158.196 405.838 160.237 405.952 162.25 406.27C164.41 407.03 168.25 393.91 168.25 393.91L162.47 392.55L178.2 391.87L178.96 387.54C178.96 387.54 173.85 388.02 165.83 388.66C164.173 389.614 162.694 390.849 161.46 392.31L161.22 392.61C157.87 396.72 156.63 402.02 156.16 405.93Z" fill="black"/>
<path opacity="0.1" d="M280.13 577.81L284.54 580.73C291.12 579.54 297.13 577.67 297.84 574.73C297.843 574.683 297.843 574.637 297.84 574.59C296.44 573.51 295.51 572.69 295.51 572.69L280.13 577.81Z" fill="black"/>
<path opacity="0.1" d="M267.09 582.61C272.901 582.321 278.69 581.7 284.43 580.75C281.002 579.81 277.518 579.085 274 578.58C269.73 578.12 267.54 581.76 267.09 582.61Z" fill="black"/>
<path d="M156.64 410.98C156.64 414.17 165.43 416.21 165.43 416.21L192.2 440.04C192.2 440.04 209.02 447.56 219.72 458.39C230.42 469.22 239.86 459.92 239.86 459.92C251.2 457.12 283.86 417.61 283.86 417.61C283.86 417.61 284.62 462.73 286.15 466.04C287.68 469.35 285.64 478.4 284.75 482.23C284.189 485.424 283.974 488.67 284.11 491.91C284.11 491.91 271.88 538.68 272.9 542.76C273.92 546.84 266.27 565.96 266.27 565.96V581.89C266.27 581.89 296.22 580.74 297.87 573.99C299.52 567.24 290.36 564.3 290.36 564.3V562.64C296.36 559.58 297.49 538.56 297.49 538.56C297.49 538.56 306.42 512.56 307.69 508.23C308.96 503.9 307.69 497.39 307.69 497.39L308.58 491.79C308.58 491.79 310.49 487.96 310.49 487.2C310.74 485.259 311.487 483.416 312.66 481.85C314.06 480.19 311.13 476.24 311.13 476.24L313.68 469.61V462.35L319.68 435.97C319.68 435.97 325.93 405.25 323.76 395.18C321.59 385.11 326.31 380.02 326.31 380.02C316.08 385.38 310.92 373.45 309.23 368.32C308.8 367 308.59 366.12 308.59 366.12C308.59 366.12 294.54 360.94 281.46 362.18C278.804 362.395 276.186 362.95 273.67 363.83C259.14 369.06 256.85 390.72 256.85 390.72L243.98 410.35C237.35 427.81 227.41 429.59 227.41 429.59C227.41 429.59 204.09 413.92 203.41 413.15C202.73 412.38 193.85 408.56 193.85 408.56C192.8 406.712 191.194 405.242 189.26 404.36C186.2 403.08 185.95 398.36 185.95 398.36C185.57 387.27 179.07 386.36 179.07 386.36C156.51 384.48 156.64 407.8 156.64 410.98Z" fill="#3F3D56"/>
<path d="M286.38 348.67H300.14V305.98H286.38V348.67Z" fill="#F86D70"/>
<path opacity="0.1" d="M286.38 348.67H300.14V305.98H286.38V348.67Z" fill="black"/>
<path opacity="0.1" d="M322.44 218.67C322.438 218.7 322.438 218.73 322.44 218.76C322.546 218.997 322.674 219.225 322.82 219.44L326.64 225.04L336.58 226.04L336.69 222.1C333.59 221.86 326.53 221.01 322.44 218.67Z" fill="black"/>
<path d="M322.83 219.44C322.83 219.44 323.34 241.86 317.73 244.92C312.12 247.98 309.94 263.92 309.94 263.92C309.94 263.92 326.94 275.1 330.73 280.02C334.52 284.94 343.22 296.66 341.43 299.46C339.64 302.26 345.77 315.01 345.77 315.01C345.77 315.01 334.55 337.95 337.1 346.62C339.65 355.29 339.9 378.22 339.9 378.22H344.75C344.75 378.22 343.22 359.36 343.22 351.71C343.22 344.06 348.31 316.79 348.31 316.79C348.31 316.79 350.61 290.03 348.31 289.27C346.01 288.51 332.51 277.8 331.49 272.95C330.47 268.1 338.63 222.95 338.63 222.95C338.63 222.95 328.18 222.5 322.83 219.44Z" fill="#F86D70"/>
<path opacity="0.1" d="M286.12 302.02C286.585 305.14 287.721 308.122 289.45 310.76L298.87 309.16C298.87 309.16 327.16 302.78 333 302.26C336.538 301.793 339.988 300.809 343.24 299.34C340.999 291.397 336.623 284.221 330.59 278.59L327 275.26C321.71 270.348 315.579 266.429 308.9 263.69C309.32 264.04 339 289.38 332.5 294.35C326 299.32 308.5 287.22 308.5 287.22L288.6 270.12L287.88 269.5L286.73 271.29C287.315 271.531 287.886 271.804 288.44 272.11C295.222 275.833 300.255 282.088 302.44 289.51C306.53 303.26 286.12 302.02 286.12 302.02Z" fill="black"/>
<path d="M280 365.74C280 365.74 298.86 376.19 303.44 370.33C304.44 369.04 306.55 368.48 309.18 368.33C308.75 367.01 308.54 366.13 308.54 366.13C308.54 366.13 294.49 360.95 281.41 362.19C280.55 364.35 280 365.74 280 365.74Z" fill="#444053"/>
<path d="M288.68 269.52L309.3 287.26C309.3 287.26 326.73 299.4 333.3 294.39C339.87 289.38 309.69 263.72 309.69 263.72C316.355 266.468 322.479 270.375 327.78 275.26L331.37 278.59C340.81 287.34 342.94 287.34 343.26 300.2C343.34 303.37 342.26 307.92 341.43 308.74C338.37 311.74 336.23 333.53 336.7 336.08C337.17 338.63 331 360.64 333 366.76C335 372.88 308 363.7 303.43 369.57C298.86 375.44 280 364.98 280 364.98C280 364.98 290.45 338.21 293 336.43C295.55 334.65 298.61 320.88 293 314.51C287.39 308.14 286.89 302.02 286.89 302.02C286.89 302.02 307.29 303.28 303.2 289.53C302.049 285.545 300.053 281.854 297.347 278.71C294.641 275.566 291.289 273.042 287.52 271.31L288.68 269.52Z" fill="#E8E8F0"/>
<path opacity="0.1" d="M316.2 314.64C316.2 314.64 308.29 329.55 298.06 333.42C297.73 333.54 297.41 333.65 297.06 333.75C286.38 337 317 319.26 316.2 314.64Z" fill="black"/>
<path d="M205.58 182.73C205.58 182.73 209.4 192.42 212.46 195.73C215.52 199.04 238.2 232.18 238.2 232.18L240.12 236.18L241.77 239.59L256.3 238.06L257.3 232.2L256.74 231.52C255.28 229.77 251.3 225.07 248.63 223.02C245.32 220.48 238.69 212.07 238.69 212.07C238.69 212.07 218.05 190.65 216.52 184.79C214.99 178.93 194.34 143.79 189.76 149.87C185.18 155.95 205.58 182.73 205.58 182.73Z" fill="#FBBEBE"/>
<g opacity="0.1">
<path opacity="0.1" d="M247.74 340.36C245.996 340.209 244.24 340.462 242.61 341.1C239.01 342.85 238.33 347.58 236.33 351.05C233.99 355.11 229.53 357.62 224.94 358.55C224.028 358.727 223.106 358.854 222.18 358.93C225.103 359.214 228.052 359.087 230.94 358.55C235.53 357.62 239.99 355.11 242.33 351.05C244.33 347.58 245.01 342.85 248.61 341.1C249.555 340.675 250.574 340.437 251.61 340.4L247.74 340.36Z" fill="black"/>
<path opacity="0.1" d="M283.26 263.65C283.26 255.7 288.43 248.85 292.69 242.14C296.95 235.43 300.53 226.96 297.16 219.76C294.28 213.61 276.92 205.36 266.9 206.99C276.71 208.26 288.8 214.72 291.16 219.76C294.53 226.96 290.95 235.43 286.69 242.14C282.43 248.85 277.24 255.7 277.26 263.65C277.26 273.91 276.57 281.65 273.75 291.56C272.94 294.41 280.75 298.72 279.55 301.42C275.49 310.42 277.39 320.8 276.74 330.64C276.727 332.562 276.257 334.454 275.37 336.16C273.37 339.45 269.27 340.3 265.28 340.48H268.77C273.43 340.48 278.96 340.12 281.37 336.13C282.257 334.424 282.727 332.532 282.74 330.61C283.39 320.77 281.49 310.38 285.55 301.39C286.77 298.69 278.94 294.39 279.75 291.53C282.57 281.69 283.28 273.91 283.26 263.65Z" fill="black"/>
</g>
<path opacity="0.1" d="M240.12 236.16L241.77 239.57L256.3 238.04L257.3 232.18L256.74 231.5C255.19 232.26 243.58 237.85 240.12 236.16Z" fill="black"/>
<path opacity="0.1" d="M293.77 274.49C293.77 274.49 290.2 268.89 288.16 270.41C286.12 271.93 285.33 265.82 284.16 266.84C282.99 267.86 279.58 270.7 278.16 266.73C277.05 263.57 264.97 243.58 260.07 235.54C258.81 233.46 258.02 232.18 258.02 232.18C258.02 232.18 244.26 239.06 240.95 236.77V241.61L243.75 241.87L258.75 269.87C258.75 269.87 263.47 277.38 263.15 280C262.83 282.62 269.2 294.09 270.22 294.85C271.24 295.61 282.22 308.36 282.22 308.36C282.22 308.36 287.83 335.89 282.98 343.54C278.13 351.19 269.73 356.79 269.73 356.79C269.73 356.79 267.2 364.18 267.57 364.95C267.94 365.72 264.63 369.03 266.16 370.05C267.69 371.07 269.73 378.2 269.73 378.2C269.73 378.2 276.87 366.73 280.73 364.95C284.59 363.17 289.53 339.71 289.53 339.71C289.53 339.71 290.94 325.89 291.05 316.97C291.16 308.05 290.71 274.49 293.77 274.49Z" fill="black"/>
<path d="M293 274.49C293 274.49 289.44 268.89 287.4 270.41C285.36 271.93 284.56 265.82 283.4 266.84C282.24 267.86 278.83 270.7 277.4 266.73C276.28 263.57 264.2 243.58 259.31 235.54L257.26 232.18C257.26 232.18 243.5 239.06 240.18 236.77V241.61L242.99 241.87L257.99 269.87C257.99 269.87 262.72 277.38 262.39 280C262.06 282.62 268.39 294.09 269.46 294.85C270.53 295.61 281.46 308.36 281.46 308.36C281.46 308.36 287.07 335.89 282.23 343.54C279.673 347.382 276.563 350.826 273 353.76C270.007 356.229 267.901 359.606 267 363.38C266.826 363.894 266.765 364.44 266.82 364.98C267.19 365.74 263.88 369.06 265.41 370.08C266.94 371.1 269 378.26 269 378.26C269 378.26 276.14 366.79 280 365.01C283.86 363.23 288.81 339.77 288.81 339.77C288.81 339.77 290.21 325.95 290.33 317.03C290.45 308.11 290 274.49 293 274.49Z" fill="#F86D70"/>
<path opacity="0.1" d="M258.08 390.47C258.08 390.47 268.79 392.47 273.08 395.56C277.37 398.65 256.77 390.72 256.77 390.72L258.08 390.47Z" fill="black"/>
<path opacity="0.1" d="M283.83 417.61C283.83 417.61 295 426.92 293 435.33C291 443.74 285.84 464.9 285.84 464.9L283.83 417.61Z" fill="black"/>
<path opacity="0.1" d="M186.14 399.71C186.14 399.71 170.4 401.43 171.42 403.47C172.44 405.51 186.14 401.59 186.14 401.59V399.71Z" fill="black"/>
<path opacity="0.1" d="M307 477.13C307 477.13 308 478.4 302.16 477.13C296.32 475.86 300.63 471.94 300.63 471.94L307 477.13Z" fill="black"/>
<path opacity="0.1" d="M305 494.72C305 494.72 297 495.99 292.71 494.72C288.42 493.45 305 494.72 305 494.72Z" fill="black"/>
<path opacity="0.1" d="M288.54 563.54C288.54 563.54 287.14 562.01 280.13 564.81C273.12 567.61 270.32 567.74 268.28 566.81C266.24 565.88 288.54 563.54 288.54 563.54Z" fill="black"/>
<path opacity="0.1" d="M296.32 397.54L286.38 411.37C286.38 411.37 291.73 399.26 296.32 397.54Z" fill="black"/>
<path opacity="0.1" d="M277 270.41C277 270.41 276.57 275 270.16 276.79C263.75 278.58 262.53 280.03 262.53 280.03" fill="black"/>
<path opacity="0.1" d="M260.34 237.14C260.34 237.14 251.88 243.14 243.05 241.87Z" fill="black"/>
<path opacity="0.1" d="M266.78 365.61C266.78 365.61 269.25 367.16 275.18 360.38Z" fill="black"/>
<path opacity="0.1" d="M328.37 293.72C328.61 292.48 327.75 291.33 326.94 290.36L325.28 288.36C324.956 287.951 324.59 287.575 324.19 287.24C323.19 286.47 321.91 286.24 320.87 285.55" fill="black"/>
<path opacity="0.1" d="M865.29 -54.89C865.29 -54.89 781.1 -59.97 791 -0.969994C791 -0.969994 789 9.45999 798.48 14.19C798.48 14.19 798.63 9.82001 807.12 11.31C810.143 11.811 813.213 11.9587 816.27 11.75C820.399 11.4649 824.324 9.84313 827.45 7.13V7.13C827.45 7.13 851.12 -2.65 860.32 -41.33C860.32 -41.33 867.13 -49.77 866.86 -51.94L852.65 -45.87C852.65 -45.87 857.51 -35.62 853.65 -27.1C853.65 -27.1 853.19 -45.5 850.46 -45.1C849.91 -45.01 843.08 -41.55 843.08 -41.55C843.08 -41.55 851.43 -23.7 845.13 -10.72C845.13 -10.72 847.52 -32.72 840.47 -40.26L830.47 -34.42C830.47 -34.42 840.23 -15.98 833.61 -0.93C833.61 -0.93 835.31 -24.01 828.36 -33L819.3 -25.93C819.3 -25.93 828.47 -7.75 822.88 4.73C822.88 4.73 822.15 -22.14 817.34 -24.17C817.34 -24.17 809.41 -17.17 808.2 -14.31C808.2 -14.31 814.48 -1.11 810.58 5.85C810.58 5.85 808.19 -12.05 806.23 -12.15C806.23 -12.15 798.33 -0.290002 797.51 7.85C797.51 7.85 797.85 -4.24 804.32 -13.27C804.32 -13.27 796.68 -11.96 792.22 -7.01C792.22 -7.01 793.45 -15.39 806.27 -16.12C806.27 -16.12 812.8 -25.12 814.54 -25.67C814.54 -25.67 801.8 -26.73 794.07 -23.31C794.07 -23.31 800.87 -31.22 816.88 -27.62L825.83 -34.93C825.83 -34.93 809.05 -37.22 801.93 -34.69C801.93 -34.69 810.12 -41.69 828.24 -36.59L837.98 -42.41C837.98 -42.41 823.67 -45.49 815.15 -44.41C815.15 -44.41 824.15 -49.26 840.84 -44L847.84 -47.13C847.84 -47.13 837.36 -49.19 834.29 -49.52C831.22 -49.85 831.06 -50.69 831.06 -50.69C837.699 -51.7971 844.516 -51.039 850.75 -48.5C850.75 -48.5 865.55 -53.96 865.29 -54.89Z" fill="#6C63FF"/>
</g>
<defs>
<linearGradient id="paint0_linear" x1="786.51" y1="449.93" x2="786.51" y2="47.63" gradientUnits="userSpaceOnUse">
<stop stop-color="#808080" stop-opacity="0.25"/>
<stop offset="0.54" stop-color="#808080" stop-opacity="0.12"/>
<stop offset="1" stop-color="#808080" stop-opacity="0.1"/>
</linearGradient>
<linearGradient id="paint1_linear" x1="39829.4" y1="250530" x2="89220.9" y2="250530" gradientUnits="userSpaceOnUse">
<stop stop-color="#808080" stop-opacity="0.25"/>
<stop offset="0.54" stop-color="#808080" stop-opacity="0.12"/>
<stop offset="1" stop-color="#808080" stop-opacity="0.1"/>
</linearGradient>
<clipPath id="clip0">
<rect width="1146" height="855" fill="white" transform="matrix(-1 0 0 1 1146 0)"/>
</clipPath>
</defs>
</svg>
